<svg class="svg-icon" style="width: 1.09375em; height: 1em;vertical-align: middle;fill: currentColor;overflow: hidden;" viewBox="0 0 1120 1024" version="1.1" xmlns="http://www.w3.org/2000/svg"><path d="M409.27593081 764.47432461l44.82073917 47.91962373V530.54241172h-19.22666133z m45.23920137-233.93191289v281.85153662l44.82073916-47.91962373-25.59407783-233.93191289z m0 0"  /><path d="M914.23590034 771.12448701m37.36758076 0l58.67524425 0q37.36758077 0 37.36758075 37.36758076l0 0q0 37.36758077-37.36758075 37.36757989l-58.67524425 0q-37.36758077 0-37.36758076-37.36757989l0 0q0-37.36758077 37.36758076-37.36758076Z"  /><path d="M599.28057778 481.33347031c54.7959832-42.97724122 90.13910977-109.70506406 90.13910978-184.564633C689.41968756 167.30555205 584.11413549 62 454.65085025 62S219.92725201 167.35079111 219.92725201 296.81407637c0 74.89349824 35.37705586 141.53084297 90.13910888 184.564633C165.78723696 539.01345253 63.42223366 680.01273477 63.42223366 844.61556992v78.26381895a39.09798018 39.09798018 0 0 0 39.1205997 39.1205997h704.31782167a39.09798018 39.09798018 0 0 0 39.12059973-39.1205997v-78.26381895c0-164.64807422-102.31976425-305.60211737-246.70067695-363.28209961zM454.70739908 140.30905801c86.31639668 0 156.51632813 70.18862167 156.51632812 156.51632813s-70.19993145 156.50501836-156.51632812 156.50501836-156.52763789-70.19993145-156.5276379-156.51632813S368.37969264 140.29774825 454.69608932 140.29774825z m313.02134647 743.43842139H141.66343306v-39.13190948c0-172.59886406 140.43379219-313.02134647 313.06658555-313.02134647s312.99872697 140.42248242 312.99872696 313.02134647z m112.10274141-416.50602013a195.42204141 195.42204141 0 0 0-93.87134296-320.24830868 39.1386955 39.1386955 0 0 0-20.3576414 75.58339569 117.39572842 117.39572842 0 0 1 17.23613641 220.54110821 38.22712558 38.22712558 0 0 0-12.44078085 8.67461748c-0.30536455 0.35060362-0.68989747 0.57679981-0.99526201 0.91609365a38.23843535 38.23843535 0 0 0-5.84716728 9.25141641 39.69739951 39.69739951 0 0 0-2.26196017 4.89714433c-0.27143526 0.88216436-0.91609365 1.56075205-1.13098007 2.48815547-0.3845329 1.605992 0 3.13281474-0.15833672 4.73880674a37.70687461 37.70687461 0 0 0-0.30536456 9.04783975 33.77106387 33.77106387 0 0 0 0.99526203 4.52392031c0.53156074 2.45422705 0.53156074 4.96500205 1.60599198 7.34006074a38.69082685 38.69082685 0 0 0 30.44598222 22.61960069 233.5473791 233.5473791 0 0 1 177.1454048 227.32698867v60.53005195a39.13190948 39.13190948 0 0 0 78.25250917 0v-60.51874219c0-119.40887285-66.41114855-224.95193086-168.24459109-277.72345898z m0 0"  /></svg>